<svg width="86" height="86" viewBox="0 0 86 86" fill="none" xmlns="http://www.w3.org/2000/svg">
<rect width="86" height="86" rx="43" fill="#262626"/>
<path d="M43.284 62.64C39.1453 62.64 35.54 61.8293 32.468 60.208C29.4387 58.544 27.0707 56.2613 25.364 53.36C23.7 50.4587 22.868 47.152 22.868 43.44C22.868 39.6 23.7 36.2293 25.364 33.328C27.028 30.384 29.3533 28.1013 32.34 26.48C35.3267 24.816 38.7827 23.984 42.708 23.984C46.5053 23.984 49.7053 24.752 52.308 26.288C54.9107 27.824 56.7027 30.192 57.684 33.392L55.508 31.984V24.688H61.332V37.616H55.764C54.74 35.3547 53.268 33.6693 51.348 32.56C49.428 31.4507 47.1027 30.896 44.372 30.896C41.7693 30.896 39.5293 31.4293 37.652 32.496C35.8173 33.52 34.4093 34.9707 33.428 36.848C32.4467 38.6827 31.956 40.8587 31.956 43.376C31.956 45.8507 32.4253 48.0267 33.364 49.904C34.3027 51.7387 35.6467 53.168 37.396 54.192C39.188 55.216 41.3 55.728 43.732 55.728C47.316 55.728 49.94 54.7467 51.604 52.784C53.268 50.8213 54.0147 47.8133 53.844 43.76L57.492 48.112H47.636V42.16H62.356V43.824C62.356 47.8347 61.5667 51.248 59.988 54.064C58.452 56.8373 56.2547 58.9707 53.396 60.464C50.5373 61.9147 47.1667 62.64 43.284 62.64Z" fill="white"/>
</svg>
