<svg width="100" height="100" viewBox="0 0 100 100" fill="none" xmlns="http://www.w3.org/2000/svg">
<rect width="100" height="100" rx="50" fill="#262626"/>
<path d="M22.316 58.86C19.988 58.86 17.96 58.404 16.232 57.492C14.528 56.556 13.196 55.272 12.236 53.64C11.3 52.008 10.832 50.148 10.832 48.06C10.832 45.9 11.3 44.004 12.236 42.372C13.172 40.716 14.48 39.432 16.16 38.52C17.84 37.584 19.784 37.116 21.992 37.116C24.128 37.116 25.928 37.548 27.392 38.412C28.856 39.276 29.864 40.608 30.416 42.408L29.192 41.616V37.512H32.468V44.784H29.336C28.76 43.512 27.932 42.564 26.852 41.94C25.772 41.316 24.464 41.004 22.928 41.004C21.464 41.004 20.204 41.304 19.148 41.904C18.116 42.48 17.324 43.296 16.772 44.352C16.22 45.384 15.944 46.608 15.944 48.024C15.944 49.416 16.208 50.64 16.736 51.696C17.264 52.728 18.02 53.532 19.004 54.108C20.012 54.684 21.2 54.972 22.568 54.972C24.584 54.972 26.06 54.42 26.996 53.316C27.932 52.212 28.352 50.52 28.256 48.24L30.308 50.688H24.764V47.34H33.044V48.276C33.044 50.532 32.6 52.452 31.712 54.036C30.848 55.596 29.612 56.796 28.004 57.636C26.396 58.452 24.5 58.86 22.316 58.86ZM35.8607 58.5V55.152H38.0927V40.86H35.8607V37.512H54.5807V44.568H51.3767V40.86H43.0247V46.188H46.8767V44.172H49.6847V51.732H46.8767V49.536H43.0247V55.152H52.0247V51.264H55.2287V58.5H35.8607ZM65.5801 58.86C63.8521 58.86 62.5681 58.584 61.7281 58.032C60.8881 57.48 60.3241 56.772 60.0361 55.908L60.8281 55.62V58.5H57.7681V53.604H60.4681C60.6601 54.156 60.9601 54.636 61.3681 55.044C61.7761 55.428 62.2681 55.728 62.8441 55.944C63.4201 56.136 64.0201 56.232 64.6441 56.232C65.4601 56.232 66.0601 56.1 66.4441 55.836C66.8521 55.572 67.0561 55.236 67.0561 54.828C67.0561 54.54 66.9361 54.288 66.6961 54.072C66.4561 53.832 65.9641 53.616 65.2201 53.424L61.9801 52.632C60.6841 52.272 59.6521 51.756 58.8841 51.084C58.1161 50.412 57.7321 49.476 57.7321 48.276C57.7321 47.316 57.9721 46.5 58.4521 45.828C58.9561 45.132 59.6401 44.604 60.5041 44.244C61.3921 43.884 62.3761 43.704 63.4561 43.704C64.8241 43.704 65.8801 43.968 66.6241 44.496C67.3921 45 67.8961 45.66 68.1361 46.476L67.3801 46.512V44.1H70.4401V48.636H67.7401C67.6441 48.132 67.4401 47.712 67.1281 47.376C66.8161 47.04 66.4201 46.788 65.9401 46.62C65.4601 46.428 64.9681 46.332 64.4641 46.332C63.6961 46.332 63.0961 46.464 62.6641 46.728C62.2561 46.992 62.0521 47.34 62.0521 47.772C62.0521 48.108 62.1841 48.384 62.4481 48.6C62.7361 48.792 63.2041 48.972 63.8521 49.14L67.0921 49.932C68.4601 50.244 69.5161 50.748 70.2601 51.444C71.0041 52.116 71.3761 53.088 71.3761 54.36C71.3761 55.32 71.1241 56.136 70.6201 56.808C70.1401 57.456 69.4561 57.96 68.5681 58.32C67.7041 58.68 66.7081 58.86 65.5801 58.86ZM80.4217 58.86C78.7417 58.86 77.3977 58.416 76.3897 57.528C75.3817 56.64 74.8777 55.224 74.8777 53.28V47.196H72.6097V44.1H74.8777V39.42L79.1977 38.7V44.1H83.1217V47.196H79.2337V52.704C79.2337 53.712 79.4377 54.396 79.8457 54.756C80.2777 55.116 80.8777 55.296 81.6457 55.296C81.9817 55.296 82.2937 55.26 82.5817 55.188C82.8937 55.092 83.1697 54.996 83.4097 54.9L83.9857 57.996C83.5777 58.236 83.0617 58.44 82.4377 58.608C81.8137 58.776 81.1417 58.86 80.4217 58.86ZM85.354 58.5V54.756H89.314V58.5H85.354Z" fill="white"/>
</svg>
